<svg xmlns="http://www.w3.org/2000/svg" version="1.1" xmlns:xlink="http://www.w3.org/1999/xlink" xmlns:svgjs="http://svgjs.dev/svgjs" width="1000" height="1000" viewBox="0 0 1000 1000"><rect width="1000" height="1000" fill="#000000"></rect><g transform="matrix(0.7,0,0,0.7,149.57575757575756,282.1265587044535)"><svg viewBox="0 0 396 247" data-background-color="#ffffff" preserveAspectRatio="xMidYMid meet" height="623" width="1000" xmlns="http://www.w3.org/2000/svg" xmlns:xlink="http://www.w3.org/1999/xlink"><g id="tight-bounds" transform="matrix(1,0,0,1,0.2400000000000091,-0.09999999999999432)"><svg viewBox="0 0 395.52 247.2" height="247.2" width="395.52"><g><svg></svg></g><g><svg viewBox="0 0 395.52 247.2" height="247.2" width="395.52"><g transform="matrix(1,0,0,1,39.55199999999999,67.17018794673479)"><svg viewBox="0 0 316.416 112.85962410653042" height="112.85962410653042" width="316.416"><g><svg viewBox="0 0 316.416 112.85962410653042" height="112.85962410653042" width="316.416"><g><svg viewBox="0 0 316.416 112.85962410653042" height="112.85962410653042" width="316.416"><g><svg viewBox="0 0 316.416 112.85962410653042" height="112.85962410653042" width="316.416"><g><svg viewBox="0 0 316.416 112.85962410653042" height="112.85962410653042" width="316.416"><g><svg viewBox="0 0 316.416 60.87108840550788" height="60.87108840550788" width="316.416"><g transform="matrix(1,0,0,1,0,0)"><svg width="316.416" viewBox="4.300000190734863 -38.79999923706055 250.52999877929688 48.19999694824219" height="60.87108840550788" data-palette-color="#332885"><path d="M13.5-35L13.5-35Q20.8-35 24.73-32.23 28.65-29.45 28.65-23.95L28.65-23.95Q28.65-20.95 27.58-18.82 26.5-16.7 24.48-15.38 22.45-14.05 19.55-13.45 16.65-12.85 13-12.85L13-12.85 9.15-12.85 9.15 0 4.3 0 4.3-34.15Q6.35-34.65 8.88-34.83 11.4-35 13.5-35ZM13.9-30.75L13.9-30.75Q10.8-30.75 9.15-30.6L9.15-30.6 9.15-17 12.8-17Q15.3-17 17.3-17.32 19.3-17.65 20.68-18.43 22.05-19.2 22.8-20.55 23.55-21.9 23.55-24L23.55-24Q23.55-26 22.78-27.3 22-28.6 20.68-29.38 19.35-30.15 17.6-30.45 15.85-30.75 13.9-30.75ZM40.45-3.35L40.45-3.35Q43.3-3.35 44.67-4.1 46.05-4.85 46.05-6.5L46.05-6.5Q46.05-8.2 44.7-9.2 43.35-10.2 40.25-11.45L40.25-11.45Q38.75-12.05 37.37-12.68 36-13.3 35-14.15 34-15 33.4-16.2 32.8-17.4 32.8-19.15L32.8-19.15Q32.8-22.6 35.35-24.63 37.9-26.65 42.3-26.65L42.3-26.65Q43.4-26.65 44.5-26.53 45.6-26.4 46.55-26.23 47.5-26.05 48.22-25.85 48.95-25.65 49.35-25.5L49.35-25.5 48.5-21.5Q47.75-21.9 46.15-22.33 44.55-22.75 42.3-22.75L42.3-22.75Q40.35-22.75 38.9-21.98 37.45-21.2 37.45-19.55L37.45-19.55Q37.45-18.7 37.77-18.05 38.1-17.4 38.77-16.88 39.45-16.35 40.45-15.9 41.45-15.45 42.85-14.95L42.85-14.95Q44.7-14.25 46.15-13.58 47.6-12.9 48.62-12 49.65-11.1 50.2-9.83 50.75-8.55 50.75-6.7L50.75-6.7Q50.75-3.1 48.07-1.25 45.4 0.6 40.45 0.6L40.45 0.6Q37 0.6 35.05 0.03 33.1-0.55 32.4-0.85L32.4-0.85 33.25-4.85Q34.05-4.55 35.8-3.95 37.55-3.35 40.45-3.35ZM52.8 8.6L53.65 4.85Q54.2 5.1 55.07 5.33 55.95 5.55 56.8 5.55L56.8 5.55Q59.55 5.55 61.1 4.33 62.65 3.1 63.9 0.35L63.9 0.35Q60.75-5.65 58.02-12.38 55.3-19.1 53.5-26L53.5-26 58.5-26Q59.05-23.75 59.82-21.15 60.6-18.55 61.55-15.8 62.5-13.05 63.6-10.3 64.7-7.55 65.9-5L65.9-5Q67.8-10.25 69.2-15.4 70.6-20.55 71.85-26L71.85-26 76.65-26Q74.85-18.65 72.65-11.88 70.45-5.1 67.9 0.8L67.9 0.8Q66.9 3.05 65.82 4.67 64.75 6.3 63.45 7.35 62.15 8.4 60.52 8.9 58.9 9.4 56.85 9.4L56.85 9.4Q56.3 9.4 55.7 9.33 55.1 9.25 54.52 9.13 53.95 9 53.47 8.85 53 8.7 52.8 8.6L52.8 8.6ZM92.84 0.6L92.84 0.6Q89.69 0.6 87.32-0.4 84.94-1.4 83.32-3.2 81.69-5 80.89-7.48 80.09-9.95 80.09-12.95L80.09-12.95Q80.09-15.95 80.97-18.45 81.84-20.95 83.44-22.78 85.04-24.6 87.37-25.63 89.69-26.65 92.54-26.65L92.54-26.65Q94.29-26.65 96.04-26.35 97.79-26.05 99.39-25.4L99.39-25.4 98.34-21.45Q97.29-21.95 95.92-22.25 94.54-22.55 92.99-22.55L92.99-22.55Q89.09-22.55 87.02-20.1 84.94-17.65 84.94-12.95L84.94-12.95Q84.94-10.85 85.42-9.1 85.89-7.35 86.92-6.1 87.94-4.85 89.54-4.17 91.14-3.5 93.44-3.5L93.44-3.5Q95.29-3.5 96.79-3.85 98.29-4.2 99.14-4.6L99.14-4.6 99.79-0.7Q99.39-0.45 98.64-0.23 97.89 0 96.94 0.18 95.99 0.35 94.92 0.48 93.84 0.6 92.84 0.6ZM109.44 0L104.79 0 104.79-38 109.44-38.8 109.44-25.5Q110.74-26 112.22-26.28 113.69-26.55 115.14-26.55L115.14-26.55Q118.24-26.55 120.29-25.68 122.34-24.8 123.57-23.23 124.79-21.65 125.29-19.45 125.79-17.25 125.79-14.6L125.79-14.6 125.79 0 121.14 0 121.14-13.6Q121.14-16 120.82-17.7 120.49-19.4 119.74-20.45 118.99-21.5 117.74-21.98 116.49-22.45 114.64-22.45L114.64-22.45Q113.89-22.45 113.09-22.35 112.29-22.25 111.57-22.13 110.84-22 110.27-21.85 109.69-21.7 109.44-21.6L109.44-21.6 109.44 0ZM156.29-13L156.29-13Q156.29-9.9 155.39-7.4 154.49-4.9 152.86-3.1 151.24-1.3 148.99-0.33 146.74 0.65 144.09 0.65L144.09 0.65Q141.44 0.65 139.19-0.33 136.94-1.3 135.31-3.1 133.69-4.9 132.79-7.4 131.89-9.9 131.89-13L131.89-13Q131.89-16.05 132.79-18.57 133.69-21.1 135.31-22.9 136.94-24.7 139.19-25.68 141.44-26.65 144.09-26.65L144.09-26.65Q146.74-26.65 148.99-25.68 151.24-24.7 152.86-22.9 154.49-21.1 155.39-18.57 156.29-16.05 156.29-13ZM151.44-13L151.44-13Q151.44-17.4 149.46-19.98 147.49-22.55 144.09-22.55L144.09-22.55Q140.69-22.55 138.71-19.98 136.74-17.4 136.74-13L136.74-13Q136.74-8.6 138.71-6.03 140.69-3.45 144.09-3.45L144.09-3.45Q147.49-3.45 149.46-6.03 151.44-8.6 151.44-13ZM171.29-3.4L170.64 0.5Q166.34 0.4 164.54-1.35 162.74-3.1 162.74-6.8L162.74-6.8 162.74-38 167.39-38.8 167.39-7.55Q167.39-6.4 167.59-5.65 167.79-4.9 168.24-4.45 168.69-4 169.44-3.78 170.19-3.55 171.29-3.4L171.29-3.4ZM199.43-13L199.43-13Q199.43-9.9 198.53-7.4 197.63-4.9 196.01-3.1 194.38-1.3 192.13-0.33 189.88 0.65 187.23 0.65L187.23 0.65Q184.58 0.65 182.33-0.33 180.08-1.3 178.46-3.1 176.83-4.9 175.93-7.4 175.03-9.9 175.03-13L175.03-13Q175.03-16.05 175.93-18.57 176.83-21.1 178.46-22.9 180.08-24.7 182.33-25.68 184.58-26.65 187.23-26.65L187.23-26.65Q189.88-26.65 192.13-25.68 194.38-24.7 196.01-22.9 197.63-21.1 198.53-18.57 199.43-16.05 199.43-13ZM194.58-13L194.58-13Q194.58-17.4 192.61-19.98 190.63-22.55 187.23-22.55L187.23-22.55Q183.83-22.55 181.86-19.98 179.88-17.4 179.88-13L179.88-13Q179.88-8.6 181.86-6.03 183.83-3.45 187.23-3.45L187.23-3.45Q190.63-3.45 192.61-6.03 194.58-8.6 194.58-13ZM222.28-1.5L222.28-2.6Q221.68-2.2 219.96-1.58 218.23-0.95 215.93-0.95L215.93-0.95Q213.58-0.95 211.51-1.7 209.43-2.45 207.88-4.03 206.33-5.6 205.43-7.95 204.53-10.3 204.53-13.55L204.53-13.55Q204.53-16.4 205.38-18.78 206.23-21.15 207.86-22.88 209.48-24.6 211.83-25.58 214.18-26.55 217.13-26.55L217.13-26.55Q220.38-26.55 222.81-26.08 225.23-25.6 226.88-25.2L226.88-25.2 226.88-2Q226.88 4 223.78 6.7 220.68 9.4 214.38 9.4L214.38 9.4Q211.93 9.4 209.76 9 207.58 8.6 205.98 8.05L205.98 8.05 206.83 4Q208.23 4.55 210.26 4.98 212.28 5.4 214.48 5.4L214.48 5.4Q218.63 5.4 220.46 3.75 222.28 2.1 222.28-1.5L222.28-1.5ZM222.23-6.7L222.23-21.9Q221.53-22.1 220.36-22.28 219.18-22.45 217.18-22.45L217.18-22.45Q213.43-22.45 211.41-20 209.38-17.55 209.38-13.5L209.38-13.5Q209.38-11.25 209.96-9.65 210.53-8.05 211.51-7 212.48-5.95 213.76-5.45 215.03-4.95 216.38-4.95L216.38-4.95Q218.23-4.95 219.78-5.48 221.33-6 222.23-6.7L222.23-6.7ZM230.98 8.6L231.83 4.85Q232.38 5.1 233.25 5.33 234.13 5.55 234.98 5.55L234.98 5.55Q237.73 5.55 239.28 4.33 240.83 3.1 242.08 0.35L242.08 0.35Q238.93-5.65 236.2-12.38 233.48-19.1 231.68-26L231.68-26 236.68-26Q237.23-23.75 238-21.15 238.78-18.55 239.73-15.8 240.68-13.05 241.78-10.3 242.88-7.55 244.08-5L244.08-5Q245.98-10.25 247.38-15.4 248.78-20.55 250.03-26L250.03-26 254.83-26Q253.03-18.65 250.83-11.88 248.63-5.1 246.08 0.8L246.08 0.8Q245.08 3.05 244 4.67 242.93 6.3 241.63 7.35 240.33 8.4 238.7 8.9 237.08 9.4 235.03 9.4L235.03 9.4Q234.48 9.4 233.88 9.33 233.28 9.25 232.7 9.13 232.13 9 231.65 8.85 231.18 8.7 230.98 8.6L230.98 8.6Z" opacity="1" transform="matrix(1,0,0,1,0,0)" fill="#ffffff" class="undefined-text-0" data-fill-palette-color="primary" id="text-0"></path></svg></g></svg></g><g transform="matrix(1,0,0,1,0,75.24129147192656)"><svg viewBox="0 0 316.416 37.61833263460387" height="37.61833263460387" width="316.416"><g transform="matrix(1,0,0,1,0,0)"><svg width="316.416" viewBox="3.3499999046325684 -36.150001525878906 380.6099853515625 45.25" height="37.61833263460387" data-palette-color="#332885"><path d="M3.35 0L3.35-34.3 15.6-34.3Q20.6-34.3 23.3-31.55 26-28.8 26-24.2L26-24.2Q26-19.55 23.18-16.73 20.35-13.9 15.6-13.9L15.6-13.9 8.35-13.9 8.35 0 3.35 0ZM8.35-18.4L15.3-18.4Q17.8-18.4 19.28-19.98 20.75-21.55 20.75-24.2L20.75-24.2Q20.75-26.8 19.33-28.28 17.9-29.75 15.3-29.75L15.3-29.75 8.35-29.75 8.35-18.4ZM44.15 0.6Q39.85 0.6 37.6-1.65 35.35-3.9 35.35-7.3L35.35-7.3Q35.35-7.85 35.37-8.03 35.4-8.2 35.4-8.25L35.4-8.25 40.25-8.25 40.25-7.8Q40.3-5.55 41.42-4.48 42.55-3.4 44.35-3.4L44.35-3.4Q45.95-3.4 47.05-4.33 48.15-5.25 48.15-7L48.15-7Q48.15-8.3 47.47-9.13 46.8-9.95 45.8-10.43 44.8-10.9 43.05-11.5L43.05-11.5Q40.75-12.25 39.32-12.98 37.9-13.7 36.9-15.23 35.9-16.75 35.9-19.25L35.9-19.25Q35.9-22.85 38.25-24.88 40.6-26.9 44.45-26.9L44.45-26.9Q48.1-26.9 50.27-24.88 52.45-22.85 52.45-19.7L52.45-19.7 52.4-18.7 47.55-18.7 47.55-19.05Q47.55-20.75 46.72-21.83 45.9-22.9 44.15-22.9L44.15-22.9Q42.35-22.9 41.52-21.9 40.7-20.9 40.7-19.6L40.7-19.6Q40.7-18 41.87-17.23 43.05-16.45 45.5-15.7L45.5-15.7Q47.9-14.95 49.37-14.2 50.85-13.45 51.92-11.88 53-10.3 53-7.65L53-7.65Q53-3.45 50.6-1.43 48.2 0.6 44.15 0.6L44.15 0.6ZM66.54 9.1Q64.49 9.1 63.29 8.7L63.29 8.7 63.29 5.3 65.14 5.3Q68.79 5.3 69.99 0L69.99 0 61.69-26.3 66.79-26.3 71.09-11.65Q71.49-10.3 71.94-8.25L71.94-8.25Q72.39-6.45 72.44-6.3L72.44-6.3 72.64-6.3Q72.74-6.7 72.94-7.8L72.94-7.8Q73.54-10.65 73.84-11.7L73.84-11.7 77.39-26.3 82.14-26.3 75.29-1.35Q73.94 3.55 71.89 6.33 69.84 9.1 66.54 9.1L66.54 9.1ZM100.09 0.6Q95.24 0.6 93.02-2.73 90.79-6.05 90.79-13.15L90.79-13.15Q90.79-20.2 93.04-23.55 95.29-26.9 99.99-26.9L99.99-26.9Q108.44-26.9 108.44-16.5L108.44-16.5 103.59-16.5Q103.59-19.8 102.79-21.3 101.99-22.8 99.99-22.8L99.99-22.8Q97.79-22.8 96.74-20.63 95.69-18.45 95.69-14.1L95.69-14.1 95.69-12.2Q95.69-7.8 96.74-5.65 97.79-3.5 100.09-3.5L100.09-3.5Q102.04-3.5 102.92-5.08 103.79-6.65 103.79-9.8L103.79-9.8 108.44-9.8Q108.44-5.05 106.34-2.23 104.24 0.6 100.09 0.6L100.09 0.6ZM119.39 0L119.39-36.15 124.09-36.15 124.09-23.55 124.39-23.55Q126.44-26.9 130.44-26.9L130.44-26.9Q137.09-26.9 137.09-18.8L137.09-18.8 137.09 0 132.39 0 132.39-18.05Q132.39-20.6 131.46-21.65 130.54-22.7 128.74-22.7L128.74-22.7Q126.79-22.7 125.44-20.88 124.09-19.05 124.09-16.1L124.09-16.1 124.09 0 119.39 0ZM158.08 0.6Q153.23 0.6 150.78-2.78 148.33-6.15 148.33-13.15L148.33-13.15Q148.33-20.15 150.78-23.53 153.23-26.9 158.08-26.9L158.08-26.9Q162.98-26.9 165.41-23.53 167.83-20.15 167.83-13.15L167.83-13.15Q167.83-6.15 165.41-2.78 162.98 0.6 158.08 0.6L158.08 0.6ZM158.08-3.5Q162.93-3.5 162.93-12.2L162.93-12.2 162.93-14.1Q162.93-22.8 158.08-22.8L158.08-22.8Q155.63-22.8 154.46-20.63 153.28-18.45 153.28-14.1L153.28-14.1 153.28-12.2Q153.28-7.85 154.46-5.68 155.63-3.5 158.08-3.5L158.08-3.5ZM178.73 0L178.73-36.15 183.43-36.15 183.43 0 178.73 0ZM204.13 0.6Q199.28 0.6 196.83-2.78 194.38-6.15 194.38-13.15L194.38-13.15Q194.38-20.15 196.83-23.53 199.28-26.9 204.13-26.9L204.13-26.9Q209.03-26.9 211.45-23.53 213.88-20.15 213.88-13.15L213.88-13.15Q213.88-6.15 211.45-2.78 209.03 0.6 204.13 0.6L204.13 0.6ZM204.13-3.5Q208.98-3.5 208.98-12.2L208.98-12.2 208.98-14.1Q208.98-22.8 204.13-22.8L204.13-22.8Q201.68-22.8 200.5-20.63 199.33-18.45 199.33-14.1L199.33-14.1 199.33-12.2Q199.33-7.85 200.5-5.68 201.68-3.5 204.13-3.5L204.13-3.5ZM229.23 9.1Q226.33 9.1 224.63 7.35 222.93 5.6 222.93 2.9L222.93 2.9Q222.93 1 223.85-0.48 224.78-1.95 226.33-2.6L226.33-2.6Q225.33-3.25 224.75-4.3 224.18-5.35 224.18-6.55L224.18-6.55Q224.18-8.15 225.2-9.33 226.23-10.5 227.93-11.1L227.93-11.1Q226.43-12.3 225.63-14.05 224.83-15.8 224.83-18L224.83-18Q224.83-22.15 227.2-24.53 229.58-26.9 233.78-26.9L233.78-26.9Q236.08-26.9 237.78-26L237.78-26Q240.48-27.65 240.78-30.6L240.78-30.6 244.83-30.6Q244.83-28.1 243.68-26.4 242.53-24.7 240.48-24.15L240.48-24.15Q242.73-21.75 242.73-18L242.73-18Q242.73-13.95 240.38-11.55 238.03-9.15 233.93-9.15L233.93-9.15 231.23-9.15Q230.28-9.15 229.65-8.53 229.03-7.9 229.03-7L229.03-7Q229.03-6.15 229.65-5.55 230.28-4.95 231.18-4.95L231.18-4.95 239.18-4.95Q241.88-4.95 243.58-3.13 245.28-1.3 245.28 1.45L245.28 1.45Q245.28 4.8 243.13 6.95 240.98 9.1 237.33 9.1L237.33 9.1 229.23 9.1ZM233.73-12.85Q235.78-12.85 236.88-14.23 237.98-15.6 237.98-18L237.98-18Q237.98-20.5 236.9-21.83 235.83-23.15 233.73-23.15L233.73-23.15Q231.68-23.15 230.6-21.8 229.53-20.45 229.53-18L229.53-18Q229.53-15.55 230.6-14.2 231.68-12.85 233.73-12.85L233.73-12.85ZM230.48 5.25L237.58 5.25Q238.83 5.25 239.68 4.42 240.53 3.6 240.53 2.35L240.53 2.35Q240.53 1.1 239.78 0.3 239.03-0.5 237.68-0.5L237.68-0.5 230.48-0.5Q229.13-0.5 228.38 0.3 227.63 1.1 227.63 2.35L227.63 2.35Q227.63 3.6 228.4 4.42 229.18 5.25 230.48 5.25L230.48 5.25ZM257.32 9.1Q255.27 9.1 254.07 8.7L254.07 8.7 254.07 5.3 255.92 5.3Q259.57 5.3 260.77 0L260.77 0 252.47-26.3 257.57-26.3 261.87-11.65Q262.27-10.3 262.72-8.25L262.72-8.25Q263.17-6.45 263.22-6.3L263.22-6.3 263.42-6.3Q263.52-6.7 263.72-7.8L263.72-7.8Q264.32-10.65 264.62-11.7L264.62-11.7 268.17-26.3 272.92-26.3 266.07-1.35Q264.72 3.55 262.67 6.33 260.62 9.1 257.32 9.1L257.32 9.1ZM305.57 0.55Q302.82 0.55 301.62-1.3 300.42-3.15 300.42-5.85L300.42-5.85 300.42-22.2 298.02-22.2 298.02-26.3 300.42-26.3 301.32-33.65 305.12-33.65 305.12-26.3 308.77-26.3 308.77-22.2 305.12-22.2 305.12-5.8Q305.12-4.7 305.69-4.1 306.27-3.5 307.37-3.5L307.37-3.5 308.77-3.5 308.77-0.15Q308.22 0.15 307.29 0.35 306.37 0.55 305.57 0.55L305.57 0.55ZM327.86 0.6Q322.81 0.6 320.31-2.7 317.81-6 317.81-13.15L317.81-13.15Q317.81-20.2 320.29-23.55 322.76-26.9 327.76-26.9L327.76-26.9Q332.26-26.9 334.46-23.83 336.66-20.75 336.66-14.1L336.66-14.1 336.66-11.85 322.71-11.85Q322.76-7.55 323.99-5.5 325.21-3.45 327.91-3.45L327.91-3.45Q329.76-3.45 330.89-4.95 332.01-6.45 332.01-9.05L332.01-9.05 336.66-9.05Q336.66-4.55 334.24-1.98 331.81 0.6 327.86 0.6L327.86 0.6ZM322.76-15.75L331.76-15.75Q331.76-19.2 330.76-21.03 329.76-22.85 327.76-22.85L327.76-22.85Q325.36-22.85 324.19-21.1 323.01-19.35 322.76-15.75L322.76-15.75ZM355.46 0.6Q351.16 0.6 348.91-1.65 346.66-3.9 346.66-7.3L346.66-7.3Q346.66-7.85 346.69-8.03 346.71-8.2 346.71-8.25L346.71-8.25 351.56-8.25 351.56-7.8Q351.61-5.55 352.74-4.48 353.86-3.4 355.66-3.4L355.66-3.4Q357.26-3.4 358.36-4.33 359.46-5.25 359.46-7L359.46-7Q359.46-8.3 358.79-9.13 358.11-9.95 357.11-10.43 356.11-10.9 354.36-11.5L354.36-11.5Q352.06-12.25 350.64-12.98 349.21-13.7 348.21-15.23 347.21-16.75 347.21-19.25L347.21-19.25Q347.21-22.85 349.56-24.88 351.91-26.9 355.76-26.9L355.76-26.9Q359.41-26.9 361.59-24.88 363.76-22.85 363.76-19.7L363.76-19.7 363.71-18.7 358.86-18.7 358.86-19.05Q358.86-20.75 358.04-21.83 357.21-22.9 355.46-22.9L355.46-22.9Q353.66-22.9 352.84-21.9 352.01-20.9 352.01-19.6L352.01-19.6Q352.01-18 353.19-17.23 354.36-16.45 356.81-15.7L356.81-15.7Q359.21-14.95 360.69-14.2 362.16-13.45 363.24-11.88 364.31-10.3 364.31-7.65L364.31-7.65Q364.31-3.45 361.91-1.43 359.51 0.6 355.46 0.6L355.46 0.6ZM380.76 0.55Q378.01 0.55 376.81-1.3 375.61-3.15 375.61-5.85L375.61-5.85 375.61-22.2 373.21-22.2 373.21-26.3 375.61-26.3 376.51-33.65 380.31-33.65 380.31-26.3 383.96-26.3 383.96-22.2 380.31-22.2 380.31-5.8Q380.31-4.7 380.88-4.1 381.46-3.5 382.56-3.5L382.56-3.5 383.96-3.5 383.96-0.15Q383.41 0.15 382.48 0.35 381.56 0.55 380.76 0.55L380.76 0.55Z" opacity="1" transform="matrix(1,0,0,1,0,0)" fill="#ffffff" class="undefined-text-1" data-fill-palette-color="secondary" id="text-1"></path></svg></g></svg></g></svg></g></svg></g></svg></g></svg></g></svg></g><g mask="url(#6021819a-cb16-487e-a611-f389d71df33d)"><g transform="matrix(5.373068664881933, 0, 0, 5.373068664881933, 88.28493525422091, 1)"><svg xmlns="http://www.w3.org/2000/svg" xmlns:xlink="http://www.w3.org/1999/xlink" version="1.1" x="0" y="0" viewBox="29.62544059753418 27.183000564575195 40.749549865722656 45.63500213623047" enable-background="new 0 0 100 100" xml:space="preserve" height="45.63500213623047" width="40.749549865722656" class="icon-none" data-fill-palette-color="accent" id="none"><path d="M52.5 27.183c-9.856 0-17.875 8.019-17.875 17.875v0.87l-4.822 9.006c-0.249 0.465-0.235 1.026 0.035 1.479 0.271 0.452 0.76 0.729 1.287 0.729h3.5v5.537c0 3.171 2.58 5.75 5.75 5.75h6.5v2.889c0 0.828 0.672 1.5 1.5 1.5s1.5-0.672 1.5-1.5v-4.389c0-0.828-0.672-1.5-1.5-1.5h-8c-1.517 0-2.75-1.233-2.75-2.75v-7.037c0-0.828-0.672-1.5-1.5-1.5H33.63l3.817-7.13c0.117-0.218 0.178-0.461 0.178-0.708v-1.246c0-8.202 6.673-14.875 14.875-14.875s14.875 6.673 14.875 14.875c0 3.947-1.527 7.65-4.305 10.449-0.361 0.277-0.588 0.713-0.588 1.191v14.574c0 0.828 0.672 1.5 1.5 1.5s1.5-0.672 1.5-1.5V57.329c3.16-3.328 4.893-7.661 4.893-12.271C70.375 35.201 62.356 27.183 52.5 27.183zM60.445 37.856c-1.787-2-4.326-3.244-7.148-3.502-6.32-0.567-11.197 4.095-11.861 11.362-0.076 0.825 0.531 1.555 1.356 1.631 0.819 0.063 1.555-0.533 1.63-1.357 0.513-5.598 3.975-9.08 8.602-8.647 2.063 0.188 3.904 1.081 5.186 2.513 1.279 1.433 1.886 3.306 1.705 5.273-0.139 1.531-0.866 2.916-2.048 3.9-1.181 0.982-2.676 1.446-4.208 1.308-2.364-0.216-4.111-2.315-3.896-4.679 0.163-1.766 1.754-3.18 3.436-3.027 1.068 0.098 2.148 0.822 2.045 1.972-0.084 0.909-0.979 1.229-1.344 1.197-0.832-0.054-1.541 0.573-1.595 1.399-0.054 0.827 0.573 1.541 1.399 1.595 1.982 0.105 4.287-1.332 4.525-3.918 0.243-2.669-1.848-4.968-4.758-5.233-3.32-0.299-6.381 2.325-6.695 5.741-0.367 4.012 2.598 7.574 6.609 7.941 0.272 0.024 0.543 0.037 0.813 0.037 2.041 0 4-0.706 5.588-2.028 1.798-1.496 2.903-3.604 3.116-5.933C63.158 42.597 62.287 39.917 60.445 37.856z" fill="#ffffff" data-fill-palette-color="accent"></path></svg></g></g></svg></g><defs><mask id="6021819a-cb16-487e-a611-f389d71df33d"><rect width="640" height="400" fill="white"></rect><rect width="348.05760000000004" height="141.60003023936778" fill="black" x="145.97119999999998" y="129.1999848803161" id="transform-me" transform="matrix(1,0,0,1,-122.24000000000001,-76.4)"></rect></mask></defs></svg><rect width="395.52" height="247.2" fill="none" stroke="none" visibility="hidden"></rect></g></svg></g></svg>